# AST/ASF file generated using VICON BodyLanguage
# -----------------------------------------------
:version 1.10
:name VICON
:units
  mass 1.0
  length 0.45
  angle deg
:documentation
   .ast/.asf automatically generated from VICON data using
   VICON BodyBuilder and BodyLanguage model FoxedUp or BRILLIANT.MOD
:root
   order TX TY TZ RX RY RZ
   axis XYZ
   position 0 0 0  
   orientation 0 0 0 
:bonedata
  begin
     id 1 
     name lhipjoint
     direction 0.578396 -0.714046 0.394458 
     length 2.21935 
     axis 0 0 0  XYZ
  end
  begin
     id 2 
     name lfemur
     direction 0.34202 -0.939693 0  
     length 6.39105  
     axis 0 0 20  XYZ
    dof rx ry rz
    limits (-160.0 20.0)
           (-70.0 70.0)
           (-60.0 70.0)
  end
  begin
     id 3 
     name ltibia
     direction 0.34202 -0.939693 0   
     length 6.99037   
     axis 0 0 20   XYZ
    dof rx
    limits (-10.0 170.0)
  end
  begin
     id 4 
     name lfoot
     direction 0.0582372 -0.160005 0.985397   
     length 2.06111   
     axis -90 7.62852e-016 20   XYZ
    dof rx rz
    limits (-45.0 90.0)
           (-70.0 20.0)
  end
  begin
     id 5 
     name ltoes
     direction 1.53556e-011 -4.21875e-011 1   
     length 1.04074   
     axis -90 7.62852e-016 20   XYZ
    dof rx
    limits (-90.0 20.0)
  end
  begin
     id 6 
     name rhipjoint
     direction -0.558179 -0.726269 0.40121   
     length 2.182  
     axis 0 0 0  XYZ 
  end
  begin
     id 7 
     name rfemur
     direction -0.34202 -0.939693 0   
     length 6.51172   
     axis 0 0 -20   XYZ
    dof rx ry rz
    limits (-160.0 20.0)
           (-70.0 70.0)
           (-70.0 60.0)
  end
  begin
     id 8 
     name rtibia
     direction -0.34202 -0.939693 0   
     length 7.02607   
     axis 0 0 -20   XYZ
    dof rx
    limits (-10.0 170.0)
 end
 begin
     id 9 
     name rfoot
     direction -0.0788856 -0.216737 0.973038   
     length 1.96734  
     axis -90 -7.62852e-016 -20   XYZ
    dof rx rz
    limits (-45.0 90.0)
           (-20.0 70.0)
  end
  begin
     id 10 
     name rtoes
     direction -1.53567e-011 -4.21783e-011 1   
     length 0.990825   
     axis -90 -7.62852e-016 -20   XYZ
    dof rx
    limits (-90.0 20.0)
  end
  begin
     id 11 
     name lowerback
     direction 0.00668177 0.999323 -0.0361741   
     length 1.7655   
     axis 0 0 0   XYZ
    dof rx ry rz
    limits (-20.0 45.0)
           (-30.0 30.0)
           (-30.0 30.0)
  end
  begin
     id 12 
     name upperback
     direction -0.00222086 0.99851 0.0545167   
     length 1.74912   
     axis 0 0 0   XYZ
    dof rx ry rz
    limits (-20.0 45.0)
           (-30.0 30.0)
           (-30.0 30.0)
  end
  begin
     id 13 
     name thorax
     direction -0.00733971 0.997496 0.0703443   
     length 1.75715   
     axis 0 0 0   XYZ
    dof rx ry rz
    limits (-20.0 45.0)
           (-30.0 30.0)
           (-30.0 30.0)
  end
  begin
     id 14 
     name lowerneck
     direction 0.0279797 0.994795 0.0979765   
     length 1.46939   
     axis 0 0 0   XYZ
    dof rx ry rz
    limits (-20.0 45.0)
           (-30.0 30.0)
           (-30.0 30.0)
  end
  begin
     id 15 
     name upperneck
     direction 0.00339187 0.976776 -0.214238   
     length 1.48018   
     axis 0 0 0   XYZ
    dof rx ry rz
    limits (-20.0 45.0)
           (-30.0 30.0)
           (-30.0 30.0)
  end
  begin
     id 16
     name head
     direction -0.00263506 0.996603 -0.0823096  
     length 1.4976  
     axis 0 0 0   XYZ
    dof rx ry rz
    limits (-20.0 45.0)
           (-30.0 30.0)
           (-30.0 30.0)
  end
  begin
     id 17 
     name lclavicle
     direction 0.894044 0.44508 -0.0508781  
     length 3.03024  
     axis 0 0 0   XYZ
    dof ry rz
    limits (-20.0 10.0)
           (0.0 20.0)
  end
  begin
     id 18 
     name lhumerus
     direction 1 -4.48961e-011 -2.39475e-018   
     length 4.4661   
     axis 180 -30 -90   XYZ
    dof rx ry rz
    limits (-60.0 90.0)
           (-90.0 90.0)
           (-90.0 90.0)
  end
  begin
     id 19
     name lradius
     direction 1 -4.48961e-011 9.29328e-028   
     length 3.41414   
     axis 180 -30 -90   XYZ
    dof rx
    limits (-10.0 170.0)
  end
  begin
     id 20
     name lwrist
     direction 1 -4.48985e-011 1.53461e-026   
     length 1.70707   
     axis -1.09697e-014 90 90   XYZ
    dof ry
    limits (-180.0 0.0)
 end
  begin
     id 21 
     name lhand
     direction 1 -4.48966e-011 3.06923e-026   
     length 0.328298   
     axis -1.95843e-014 90 90   XYZ
    dof rx rz
    limits (-90.0 90.0)
           (-45.0 45.0)
  end
  begin
     id 22 
     name lfingers
     direction 1 -4.48893e-011 6.13845e-026   
     length 0.264682   
     axis -3.91686e-014 90 90   XYZ
    dof rx
    limits (0.0 90.0)
  end
  begin
     id 23
     name lthumb
     direction 0.707107 -6.34876e-011 0.707107   
     length 0.380032   
     axis -90 45 2.85299e-015   XYZ
    dof rx rz
    limits (-45.0 45.0)
           (-45.0 45.0)
  end
  begin
     id 24 
     name rclavicle
     direction -0.936955 0.347862 -0.0332887   
     length 3.26927  
     axis 0 0 0   XYZ 
    dof ry rz
    limits (-10.0 20.0)
           (-20.0 0.0)
  end
  begin
     id 25 
     name rhumerus
     direction -1 -4.4896e-011 1.78637e-018  
     length 4.40431   
     axis 180 30 90   XYZ
    dof rx ry rz
    limits (-90.0 60.0)
           (-90.0 90.0)
           (-90.0 90.0)
  end
  begin
     id 26 
     name rradius
     direction -1 -4.48955e-011 9.34036e-027   
     length 3.04688   
     axis 180 30 90   XYZ
    dof rx
    limits (-10.0 170.0)
  end
  begin
     id 27 
     name rwrist
     direction -1 -4.49011e-011 1.53461e-026   
     length 1.52344   
     axis -1.09697e-014 -90 -90   XYZ
    dof ry
    limits (-180.0 0.0)
  end
  begin
     id 28
     name rhand
     direction -1 -4.48834e-011 3.06923e-026   
     length 0.500489   
     axis -1.95843e-014 -90 -90   XYZ
    dof rx rz
    limits (-90.0 90.0)
           (-45.0 45.0)
  end
  begin
     id 29
     name rfingers
     direction -1 -4.48967e-011 6.13845e-026   
     length 0.403507   
     axis -3.91686e-014 -90 -90   XYZ
    dof rx
    limits (0.0 90.0)
  end
  begin
     id 30
     name rthumb
     direction -0.707107 -6.34826e-011 0.707107   
     length 0.579358   
     axis -90 -45 -2.85299e-015   XYZ
    dof rx rz
    limits (-45.0 45.0)
           (-45.0 45.0)
  end
:hierarchy
  begin
    root lhipjoint rhipjoint lowerback
    lhipjoint lfemur
    lfemur ltibia
    ltibia lfoot
    lfoot ltoes
    rhipjoint rfemur
    rfemur rtibia
    rtibia rfoot
    rfoot rtoes
    lowerback upperback
    upperback thorax
    thorax lowerneck lclavicle rclavicle
    lowerneck upperneck
    upperneck head
    lclavicle lhumerus
    lhumerus lradius
    lradius lwrist
    lwrist lhand lthumb
    lhand lfingers
    rclavicle rhumerus
    rhumerus rradius
    rradius rwrist
    rwrist rhand rthumb
    rhand rfingers
  end

#!OML:ASF H:\IndianDance\Patient Classification 1\Patient 1\Session 1\dancer.ASF
:FULLY-SPECIFIED
:DEGREES
1
root 25.4463 13.1121 -1.00172 -173.327 -0.543634 -176.977
lowerback 5.11119 0.599331 1.90247
upperback -8.05905 0.500186 -0.229443
thorax -11.4934 -0.143049 -1.34588
lowerneck -11.9227 -8.14928 -7.68701
upperneck 17.052 -11.6292 7.14031
head 8.11084 -5.59626 2.29502
rclavicle -1.3418e-015 -1.59028e-015
rhumerus -2.62686 67.166 -23.2067
rradius 108.257
rwrist 1.35708
rhand -44.7011 47.8316
rfingers 7.12502
rthumb -17.496 18.5989
lclavicle -1.3418e-015 -1.59028e-015
lhumerus 19.4687 -66.6925 -3.85318
lradius 112.391
lwrist 11.8755
lhand -49.2495 -14.2303
lfingers 7.12502
lthumb -21.8686 14.5539
rfemur -43.8429 -43.7288 25.7659
rtibia 80.5828
rfoot -34.8401 -6.4672
rtoes 8.18941
lfemur -44.7679 34.7794 -21.2745
ltibia 81.4306
lfoot -32.4586 -1.44933
ltoes 5.25492
2
root 25.4525 13.0903 -1.00881 -173.289 -0.678058 -176.854
lowerback 5.05328 0.59926 1.95809
upperback -8.0677 0.508837 -0.16502
thorax -11.4675 -0.140988 -1.30818
lowerneck -12.082 -8.16874 -7.73364
upperneck 17.184 -11.6512 7.15187
head 8.18865 -5.60304 2.29512
rclavicle -2.98177e-016 -5.56597e-015
rhumerus -2.66612 67.1092 -23.1674
rradius 108.339
rwrist 1.35964
rhand -44.5068 47.6087
rfingers 7.12502
rthumb -17.309 18.3595
lclavicle -2.98177e-016 -5.56597e-015
lhumerus 19.62 -66.6168 -3.84105
lradius 112.328
lwrist 11.984
lhand -49.2139 -14.2675
lfingers 7.12502
lthumb -21.8345 14.5207
rfemur -44.0066 -43.8723 25.9473
rtibia 80.8757
rfoot -34.9161 -6.43633
rtoes 8.13765
lfemur -44.9871 34.79 -21.1609
ltibia 81.7569
lfoot -32.5848 -1.34933
ltoes 5.00083
3
root 25.4581 13.07 -1.01679 -173.276 -0.793442 -176.837
lowerback 5.00703 0.607292 1.88095
upperback -8.06548 0.516098 -0.103244
thorax -11.4373 -0.127293 -1.19903
lowerneck -12.0092 -8.15991 -7.69017
upperneck 17.099 -11.6003 6.98951
head 8.13029 -5.58948 2.24632
rclavicle -6.36111e-015 2.78299e-015
rhumerus -2.58418 67.031 -22.8904
rradius 108.434
rwrist 1.39909
rhand -44.4731 47.4437
rfingers 7.12502
rthumb -17.2766 18.1917
lclavicle -6.36111e-015 2.78299e-015
lhumerus 19.6508 -66.5559 -3.69991
lradius 112.302
lwrist 12.0179
lhand -48.7989 -14.2916
lfingers 7.12502
lthumb -21.4358 14.5425
rfemur -44.1268 -44.0283 25.9672
rtibia 81.1762
rfoot -34.993 -6.37359
rtoes 7.99882
lfemur -45.1424 34.7841 -21.1394
ltibia 82.0346
lfoot -32.6842 -1.46562
ltoes 5.58532
4
root 25.4647 13.0508 -1.02468 -173.271 -0.886583 -176.904
lowerback 4.97916 0.603208 1.73925
upperback -8.06423 0.495383 -0.098792
thorax -11.4204 -0.124554 -1.11163
lowerneck -12.0262 -8.13822 -7.60696
upperneck 17.0967 -11.5618 6.89595
head 8.11853 -5.57266 2.20733
rclavicle 3.97569e-016 7.55382e-015
rhumerus -2.60275 66.9668 -22.8904
rradius 108.47
rwrist 1.4333
rhand -44.5095 47.3239
rfingers 7.12502
rthumb -17.3117 18.0749
lclavicle 3.97569e-016 7.55382e-015
lhumerus 19.6671 -66.4847 -3.63349
lradius 112.268
lwrist 12.0035
lhand -48.6445 -14.2923
lfingers 7.12502
lthumb -21.2876 14.5586
rfemur -44.2281 -44.1599 25.8779
rtibia 81.478
rfoot -35.0895 -6.30001
rtoes 8.01689
lfemur -45.2457 34.7546 -21.2087
ltibia 82.2901
lfoot -32.8143 -1.45419
ltoes 5.863
5
root 25.47 13.0317 -1.03206 -173.244 -1.00996 -176.859
lowerback 4.9248 0.615178 1.74094
upperback -8.07194 0.513247 -0.0524991
thorax -11.3956 -0.114257 -1.06475
lowerneck -12.1448 -8.15804 -7.59703
upperneck 17.1983 -11.5605 6.76723
head 8.16472 -5.57696 2.15801
rclavicle -2.83268e-015 -7.95139e-015
rhumerus -2.66148 66.903 -22.8934
rradius 108.411
rwrist 1.41694
rhand -44.4232 47.3706
rfingers 7.12502
rthumb -17.2285 18.1143
lclavicle -2.83268e-015 -7.95139e-015
lhumerus 19.7988 -66.4307 -3.62152
lradius 112.257
lwrist 11.9974
lhand -48.776 -14.1913
lfingers 7.12502
lthumb -21.4139 14.6453
rfemur -44.3616 -44.2998 25.9433
rtibia 81.7694
rfoot -35.1895 -6.17242
rtoes 8.18565
lfemur -45.4172 34.7393 -21.1795
ltibia 82.5564
lfoot -32.9414 -1.42703
ltoes 6.03136
6
root 25.475 13.0122 -1.03899 -173.257 -1.12604 -176.791
lowerback 4.91265 0.618452 1.75008
upperback -8.06804 0.523815 -0.00262045
thorax -11.3837 -0.106898 -1.01762
lowerneck -12.0964 -8.15539 -7.56841
upperneck 17.1511 -11.5363 6.67173
head 8.13072 -5.57189 2.12833
rclavicle 2.43511e-015 0
rhumerus -2.61646 66.8123 -22.7541
rradius 108.445
rwrist 1.34714
rhand -44.4372 47.4006
rfingers 7.12502
rthumb -17.2421 18.1455
lclavicle 2.43511e-015 0
lhumerus 19.9098 -66.3849 -3.59472
lradius 112.213
lwrist 11.867
lhand -48.6321 -14.3108
lfingers 7.12502
lthumb -21.2757 14.5414
rfemur -44.4289 -44.4501 25.994
rtibia 82.0541
rfoot -35.3473 -6.00874
rtoes 8.68898
lfemur -45.532 34.7533 -21.0964
ltibia 82.8105
lfoot -33.1625 -0.777299
ltoes 3.75233
7
root 25.482 12.9931 -1.04536 -173.201 -1.2054 -176.801
lowerback 4.86348 0.606238 1.6728
upperback -8.10248 0.494183 0.0156791
thorax -11.3945 -0.116378 -0.949495
lowerneck -12.1084 -8.09383 -7.49707
upperneck 17.1623 -11.4479 6.59966
head 8.12099 -5.53107 2.10458
rclavicle -4.32357e-015 -2.78299e-015
rhumerus -2.53102 66.8143 -22.694
rradius 108.464
rwrist 1.26571
rhand -44.4161 47.3874
rfingers 7.12502
rthumb -17.2217 18.1306
lclavicle -4.32357e-015 -2.78299e-015
lhumerus 19.7419 -66.4173 -3.43142
lradius 112.202
lwrist 11.7606
lhand -48.7918 -14.2258
lfingers 7.12502
lthumb -21.4291 14.609
rfemur -44.6297 -44.5723 26.0433
rtibia 82.3482
rfoot -35.4194 -5.93129
rtoes 8.57216
lfemur -45.7209 34.786 -21.1348
ltibia 83.0489
lfoot -33.2497 -0.87173
ltoes 4.20761
8
root 25.4867 12.9764 -1.0524 -173.193 -1.24701 -176.854
lowerback 4.85959 0.634951 1.58071
upperback -8.12494 0.522026 0.0278379
thorax -11.4176 -0.0958614 -0.888604
lowerneck -12.0812 -8.09262 -7.54706
upperneck 17.1964 -11.4301 6.54713
head 8.1259 -5.53063 2.09816
rclavicle 5.56597e-015 -7.95139e-015
rhumerus -2.57774 66.764 -22.6856
rradius 108.457
rwrist 1.16426
rhand -44.4152 47.3287
rfingers 7.12502
rthumb -17.2209 18.0717
lclavicle 5.56597e-015 -7.95139e-015
lhumerus 19.9709 -66.3705 -3.56756
lradius 112.207
lwrist 11.7942
lhand -48.8538 -14.2
lfingers 7.12502
lthumb -21.4886 14.628
rfemur -44.731 -44.688 25.9615
rtibia 82.6255
rfoot -35.4966 -5.7354
rtoes 8.8489
lfemur -45.8016 34.8125 -21.1947
ltibia 83.2564
lfoot -33.3818 -0.77663
ltoes 4.14258
9
root 25.4913 12.963 -1.05941 -173.185 -1.31441 -176.78
lowerback 4.8315 0.650088 1.58377
upperback -8.13323 0.546116 0.0847172
thorax -11.4096 -0.0822257 -0.832187
lowerneck -12.1083 -8.08575 -7.5357
upperneck 17.2483 -11.4044 6.45406
head 8.13959 -5.52428 2.06762
rclavicle 6.16232e-015 7.15625e-015
rhumerus -2.60119 66.7188 -22.6419
rradius 108.509
rwrist 1.10036
rhand -44.4027 47.1644
rfingers 7.12502
rthumb -17.2088 17.9064
lclavicle 6.16232e-015 7.15625e-015
lhumerus 19.9775 -66.3304 -3.48118
lradius 112.225
lwrist 11.7928
lhand -48.773 -14.3369
lfingers 7.12502
lthumb -21.411 14.5
rfemur -44.8091 -44.777 26.032
rtibia 82.8575
rfoot -35.5923 -5.55646
rtoes 9.21143
lfemur -45.8919 34.8043 -21.0881
ltibia 83.4469
lfoot -33.4478 -1.07763
ltoes 5.16563
